<svg version="1.1" id="Layer_1" xmlns="http://www.w3.org/2000/svg" xmlns:xlink="http://www.w3.org/1999/xlink" x="0px" y="0px"
	 width="100%" viewBox="0 0 1024 1024" enable-background="new 0 0 1024 1024" xml:space="preserve">
<path fill="#000000" opacity="1.000000" stroke="none" 
	d="
M260.732849,318.188110 
	C288.672180,334.140961 316.363983,349.789490 343.903137,365.702301 
	C378.209961,385.525726 412.187378,405.928192 446.704346,425.375397 
	C466.579834,436.573395 486.285492,448.080597 506.334625,458.970245 
	C508.665527,460.236298 510.649170,461.344299 510.278839,464.510498 
	C508.511749,479.618958 509.587524,494.790771 509.348175,509.934143 
	C509.340698,510.408508 509.124512,510.879608 508.819153,512.093689 
	C501.450745,506.865814 493.634003,502.973602 486.110565,498.573639 
	C437.667053,470.242218 389.694427,441.119629 341.473907,412.414948 
	C318.148987,398.530090 295.279297,383.884796 271.628998,370.554169 
	C264.022522,366.266754 258.781769,360.583466 254.480865,352.646515 
	C246.405869,337.744873 235.805634,324.321930 225.074509,311.146729 
	C219.622635,304.453156 214.378723,297.635681 209.601639,290.464294 
	C209.869492,290.072662 210.137344,289.681000 210.405212,289.289368 
	C227.075989,298.859924 243.746765,308.430511 260.732849,318.188110 
z"/>
<path fill="#000000" opacity="1.000000" stroke="none" 
	d="
M641.690674,394.600952 
	C703.013733,359.043915 764.023682,323.677277 824.832458,288.427277 
	C826.328979,289.795380 825.656677,290.511566 825.193420,291.121033 
	C815.227905,304.231934 805.870422,317.791931 795.238953,330.415649 
	C788.164490,338.815765 782.003418,347.969116 776.332703,357.397034 
	C773.777100,361.645844 770.618591,364.998077 766.209961,367.428131 
	C736.151184,383.996307 707.403564,402.740051 678.084473,420.539581 
	C642.079224,442.398376 605.440918,463.212341 569.193054,484.675140 
	C557.452759,491.626678 546.080505,499.199677 534.539612,506.487915 
	C533.021301,507.446777 531.680237,508.824921 529.560913,508.593719 
	C528.138184,507.280365 528.727783,505.521729 528.685120,503.955170 
	C528.309448,490.143494 529.515930,476.296906 527.788574,462.517120 
	C527.543457,460.561798 528.281677,459.612305 529.993164,458.634338 
	C567.149597,437.402924 604.259094,416.089203 641.690674,394.600952 
z"/>
<path fill="#000000" opacity="1.000000" stroke="none" 
	d="
M349.817566,440.147034 
	C398.626190,469.508148 446.900909,499.057312 496.017181,527.192444 
	C497.460846,528.019348 498.892517,529.092285 500.463837,529.434082 
	C509.473572,531.394043 511.638245,536.719299 510.303253,545.550720 
	C508.410980,558.068970 509.445923,570.816345 509.366333,583.468872 
	C509.358398,584.730591 509.901398,586.141541 508.130035,587.736572 
	C500.195892,583.125122 491.968079,578.557129 483.951691,573.644043 
	C458.971588,558.334229 434.048340,542.931030 409.146301,527.494263 
	C378.722260,508.634430 348.343384,489.701599 317.939850,470.808624 
	C315.770538,469.460602 313.866241,467.778534 312.746643,465.516449 
	C305.201691,450.272095 293.190033,438.222504 283.547852,424.482788 
	C274.997955,412.299561 264.614441,401.704224 254.643890,390.745667 
	C252.661758,388.567169 250.847183,386.236176 248.381958,383.290375 
	C253.474762,383.125519 256.973145,384.914764 260.461792,386.556915 
	C274.827179,393.318848 287.723114,402.548157 301.185425,410.835083 
	C317.200195,420.693298 333.397491,430.255035 349.817566,440.147034 
z"/>
<path fill="#000000" opacity="1.000000" stroke="none" 
	d="
M691.018311,435.965393 
	C722.663147,417.987488 752.512512,397.672913 783.914490,380.054260 
	C785.692566,382.554169 784.238586,383.394440 783.504700,384.312469 
	C773.325989,397.045563 762.651245,409.397369 753.258850,422.737244 
	C743.594055,436.463989 732.937134,449.528839 725.032410,464.447968 
	C723.906616,466.572815 722.264099,468.106445 720.199829,469.346588 
	C688.106750,488.626892 655.881348,507.693176 624.003296,527.323364 
	C593.822510,545.908508 563.223267,563.834839 533.821716,583.671143 
	C532.490906,584.569031 531.250244,585.766418 529.488098,585.708435 
	C528.221985,583.891785 528.758789,582.016357 528.684143,580.249695 
	C528.080261,565.967712 529.946045,551.615723 527.448303,537.384949 
	C527.040649,535.062561 528.260925,533.700684 530.239136,532.646851 
	C550.672913,521.761536 570.169617,509.270081 590.036560,497.424561 
	C623.776428,477.307495 657.163940,456.599426 691.018311,435.965393 
z"/>
<path fill="#000000" opacity="1.000000" stroke="none" 
	d="
M658.810242,550.784058 
	C614.000671,604.277222 571.734070,659.316162 529.199829,715.789734 
	C528.752808,707.331238 527.078979,699.887024 528.017517,692.374451 
	C529.058044,684.045959 528.518433,675.737976 528.602417,667.424744 
	C528.742188,653.595459 528.724304,639.762878 528.594238,625.933472 
	C528.555298,621.790466 527.976074,617.647217 527.535400,613.515747 
	C527.343140,611.714172 527.466797,610.364136 529.379272,609.415405 
	C546.437378,600.952576 561.814270,589.725342 577.946899,579.739685 
	C607.967651,561.157654 638.003052,542.597900 667.896301,523.812439 
	C675.027344,519.331116 682.916809,516.292114 690.204163,511.634125 
	C678.370178,523.559448 669.440308,537.616943 658.810242,550.784058 
z"/>
<path fill="#000000" opacity="1.000000" stroke="none" 
	d="
M365.605042,523.323181 
	C403.639252,547.682495 442.276031,570.363159 480.518188,593.684448 
	C489.447052,599.129578 498.004761,605.299683 507.702972,609.471558 
	C509.503387,610.245972 511.083069,611.265381 510.822113,613.934021 
	C508.140961,641.352051 509.763641,668.856628 509.306702,696.321289 
	C509.222046,701.410400 509.294647,706.502075 508.619720,711.792114 
	C454.367065,645.851318 400.574890,579.898438 347.951294,512.557922 
	C353.732391,516.082458 359.513458,519.607056 365.605042,523.323181 
z"/>
<path fill="#000000" opacity="1.000000" stroke="none" 
	d="
M519.695679,537.512756 
	C522.863281,540.088623 520.919617,542.430176 519.607910,546.047913 
	C517.009277,542.486145 515.346191,540.119446 519.695679,537.512756 
z"/>
</svg>